<svg 
          width="19.200000762939453" 
          height="12.226414680480957" fill="none" 
          xmlns="http://www.w3.org/2000/svg">
          <path d="M 19.200000762939453 1.1462261974811694 C 19.200000762939453 0.5131829576746951 18.722436904907227 0 18.133333206176758 0 L 17.066667556762695 0 C 16.477563858032227 0 16 0.5131829576746951 16 1.1462261974811694 L 16 11.080186933279144 C 16 11.713230173085618 16.477563858032227 12.226412773132473 17.066667556762695 12.226412773132473 L 18.133333206176758 12.226412773132473 C 18.722436904907227 12.226412773132473 19.200000762939453 11.713230173085618 19.200000762939453 11.080186933279144 L 19.200000762939453 1.1462261974811694 Z M 11.765885353088379 2.445281791687101 L 12.832551956176758 2.445281791687101 C 13.421655654907227 2.445281791687101 13.899218559265137 2.970781094569625 13.899218559265137 3.6190175571442578 L 13.899218559265137 11.052677246093877 C 13.899218559265137 11.700914423924191 13.421655654907227 12.226413726806715 12.832551956176758 12.226413726806715 L 11.765885353088379 12.226413726806715 C 11.17678165435791 12.226413726806715 10.69921875 11.700914423924191 10.69921875 11.052677246093877 L 10.69921875 3.6190175571442578 C 10.69921875 2.970781094569625 11.17678165435791 2.445281791687101 11.765885353088379 2.445281791687101 Z M 7.434114456176758 5.094329436620858 L 6.367447853088379 5.094329436620858 C 5.77834415435791 5.094329436620858 5.30078125 5.626519241148262 5.30078125 6.283008562194763 L 5.30078125 11.037724587653267 C 5.30078125 11.694213908699767 5.77834415435791 12.226404190064294 6.367447853088379 12.226404190064294 L 7.434114456176758 12.226404190064294 C 8.023218154907227 12.226404190064294 8.500781059265137 11.694213908699767 8.500781059265137 11.037724587653267 L 8.500781059265137 6.283008562194763 C 8.500781059265137 5.626519241148262 8.023218154907227 5.094329436620858 7.434114456176758 5.094329436620858 Z M 2.133333444595337 7.539622672398862 L 1.0666667222976685 7.539622672398862 C 0.47756296396255493 7.539622672398862 0 8.064209309031776 0 8.711321151256508 L 0 11.054717155297554 C 0 11.701828043848044 0.47756296396255493 12.226414680480957 1.0666667222976685 12.226414680480957 L 2.133333444595337 12.226414680480957 C 2.7224371433258057 12.226414680480957 3.200000047683716 11.701828043848044 3.200000047683716 11.054717155297554 L 3.200000047683716 8.711321151256508 C 3.200000047683716 8.064209309031776 2.7224371433258057 7.539622672398862 2.133333444595337 7.539622672398862 Z" fill="rgb(0,0,0)"/>
        </svg>