<svg 
          width="17.141666412353516" 
          height="12.328307151794434" fill="none" 
          xmlns="http://www.w3.org/2000/svg">
          <path d="M 8.57130241394043 2.46628160481482 C 11.0584135055542 2.4663867474163372 13.450420379638672 3.3884694813278 15.252930641174316 5.041949662183187 C 15.388664245605469 5.16960422451781 15.605620384216309 5.167994422147188 15.739302635192871 5.038339527779164 L 17.036792755126953 3.7748725950198496 C 17.104482650756836 3.709112215863645 17.142223358154297 3.620035689960549 17.141660690307617 3.52735475169977 C 17.14109992980957 3.4346735750203936 17.10228157043457 3.3460293020346454 17.03380012512207 3.2810373460183277 C 12.302787780761719 -1.093678797447979 4.839068293571472 -1.093678797447979 0.1080559492111206 3.2810373460183277 C 0.03952397406101227 3.3459811414779415 0.0006397662800736725 3.4345987115807644 0.000007823982741683722 3.5272798882601406 C -0.0006241183145903051 3.619961064939517 0.03704831004142761 3.7090642937255387 0.10468876361846924 3.7748725950198496 L 1.402553677558899 5.038339527779164 C 1.5361508131027222 5.168189925397175 1.7532739639282227 5.169801158279382 1.888925552368164 5.041949662183187 C 3.6916656494140625 3.388361000865917 6.083947658538818 2.4662756443498814 8.57130241394043 2.46628160481482 Z M 8.567947387695312 6.686558287023932 C 9.92526626586914 6.6864738868404014 11.234148025512695 7.198213180424549 12.240266799926758 8.122341784321543 C 12.376349449157715 8.253496808505318 12.590714454650879 8.250653905148194 12.723368644714355 8.11593404609393 L 14.010649681091309 6.796626139929262 C 14.07844066619873 6.727424665154693 14.116055488586426 6.633546865534241 14.11507797241211 6.535995512162817 C 14.114100456237793 6.4384446356285885 14.07461166381836 6.345361723612349 14.005447387695312 6.277572640609636 C 10.941615104675293 3.3867249724495645 6.196879863739014 3.3867249724495645 3.133047580718994 6.277572640609636 C 3.06384015083313 6.345360769937959 3.0243542194366455 6.438490411999317 3.0234458446502686 6.536072759788421 C 3.0225377082824707 6.633655584414721 3.0602831840515137 6.727524324128467 3.128216505050659 6.796626139929262 L 4.415126323699951 8.11593404609393 C 4.547780990600586 8.250653905148194 4.76214599609375 8.253496808505318 4.898228645324707 8.122341784321543 C 5.903681755065918 7.198824008871459 7.211524963378906 6.6871281074720645 8.567947387695312 6.686558287023932 Z M 11.092369079589844 9.48010994813055 C 11.094294548034668 9.585459496990469 11.057232856750488 9.687028680567717 10.989934921264648 9.76083640264685 L 8.813270568847656 12.215563765387456 C 8.749463081359863 12.287706371981336 8.662470817565918 12.328307151794434 8.571701049804688 12.328307151794434 C 8.480932235717773 12.328307151794434 8.393939971923828 12.287706371981336 8.330132484436035 12.215563765387456 L 6.153104782104492 9.76083640264685 C 6.08585262298584 9.686974321127476 6.048856258392334 9.585372712620963 6.0508503913879395 9.480022210086654 C 6.052844524383545 9.374671707552345 6.093652725219727 9.274909736944487 6.163639545440674 9.204291102026112 C 7.553738594055176 7.890400066397661 9.589664459228516 7.890400066397661 10.97976303100586 9.204291102026112 C 11.049701690673828 9.274966003733507 11.09044361114502 9.374759445596242 11.092369079589844 9.48010994813055 Z" fill="rgb(0,0,0)"/>
        </svg>